<?xml version="1.0" encoding="UTF-8"?>
<svg xmlns="http://www.w3.org/2000/svg" xmlns:xlink="http://www.w3.org/1999/xlink" width="18pt" height="15pt" viewBox="0 0 18 15" version="1.1">
<g id="surface1">
<path style=" stroke:none;fill-rule:nonzero;fill:rgb(255,255,255);fill-opacity:1;" d="M 9 15 C 13.972656 15 18 11.644531 18 7.5 C 18 3.355469 13.972656 0 9 0 C 4.027344 0 0 3.355469 0 7.5 C 0 11.644531 4.027344 15 9 15 Z M 4.117188 7.335938 L 12.796875 4.550781 C 13.199219 4.429688 13.550781 4.632812 13.417969 5.140625 L 13.421875 5.136719 L 11.941406 10.9375 C 11.832031 11.351562 11.539062 11.449219 11.128906 11.257812 L 8.878906 9.875 L 7.792969 10.746094 C 7.675781 10.84375 7.574219 10.929688 7.339844 10.929688 L 7.5 9.023438 L 11.671875 5.882812 C 11.851562 5.75 11.628906 5.675781 11.390625 5.808594 L 6.238281 8.511719 L 4.015625 7.933594 C 3.535156 7.804688 3.523438 7.53125 4.117188 7.335938 Z M 4.117188 7.335938 "/>
</g>
</svg>
