<?xml version="1.0" encoding="UTF-8"?>
<svg xmlns="http://www.w3.org/2000/svg" xmlns:xlink="http://www.w3.org/1999/xlink" width="18pt" height="15pt" viewBox="0 0 18 15" version="1.1">
<g id="surface1">
<path style=" stroke:none;fill-rule:nonzero;fill:rgb(255,255,255);fill-opacity:1;" d="M 9.109375 12.1875 C 11.710938 12.1875 10.785156 10.8125 10.984375 10.417969 C 10.980469 10.125 10.980469 9.839844 10.992188 9.667969 C 11.15625 9.707031 11.546875 9.871094 12.347656 10.523438 C 13.589844 11.566406 13.90625 12.1875 14.910156 12.1875 L 16.757812 12.1875 C 17.339844 12.1875 17.644531 11.984375 17.796875 11.816406 C 17.945312 11.652344 18.089844 11.363281 17.933594 10.917969 C 17.519531 9.839844 15.117188 7.980469 14.96875 7.78125 C 14.992188 7.746094 15.027344 7.699219 15.046875 7.671875 C 15.519531 7.152344 17.328125 4.894531 17.59375 3.988281 C 17.59375 3.988281 17.597656 3.984375 17.597656 3.984375 C 17.738281 3.570312 17.609375 3.304688 17.472656 3.152344 C 17.265625 2.925781 16.9375 2.8125 16.496094 2.8125 L 14.652344 2.8125 C 14.035156 2.8125 13.566406 3.070312 13.328125 3.546875 C 12.929688 4.386719 11.816406 6.113281 10.980469 6.726562 C 10.957031 5.859375 10.972656 5.199219 10.984375 4.707031 C 11.011719 3.746094 11.101562 2.8125 9.90625 2.8125 L 7.003906 2.8125 C 6.253906 2.8125 5.539062 3.492188 6.316406 4.300781 C 6.992188 5.011719 6.558594 5.40625 6.703125 7.371094 C 6.136719 6.863281 5.121094 5.488281 4.402344 3.730469 C 4.203125 3.253906 3.898438 2.8125 3.042969 2.8125 L 1.195312 2.8125 C 0.445312 2.8125 0 3.152344 0 3.722656 C 0 5 3.398438 12.1875 9.109375 12.1875 Z M 3.042969 3.75 C 3.203125 3.75 3.21875 3.75 3.339844 4.035156 C 4.074219 5.839844 5.722656 8.503906 6.925781 8.503906 C 7.828125 8.503906 7.828125 7.734375 7.828125 7.441406 L 7.828125 5.128906 C 7.777344 4.363281 7.445312 3.980469 7.226562 3.75 L 9.855469 3.753906 C 9.855469 3.761719 9.839844 6.3125 9.863281 6.929688 C 9.863281 7.804688 10.699219 8.308594 12.003906 7.207031 C 13.378906 5.914062 14.332031 3.980469 14.371094 3.902344 C 14.425781 3.789062 14.472656 3.75 14.652344 3.75 L 16.503906 3.75 C 16.503906 3.75 16.503906 3.753906 16.503906 3.753906 C 16.335938 4.410156 14.667969 6.503906 14.109375 7.152344 C 14.101562 7.164062 14.09375 7.171875 14.085938 7.183594 C 13.839844 7.515625 13.640625 7.886719 14.121094 8.40625 C 14.164062 8.449219 14.277344 8.550781 14.441406 8.695312 C 14.953125 9.136719 16.714844 10.644531 16.871094 11.242188 C 16.765625 11.257812 16.65625 11.246094 14.910156 11.25 C 14.539062 11.25 14.25 10.789062 13.140625 9.855469 C 12.144531 9.050781 11.5 8.71875 10.910156 8.71875 C 9.765625 8.71875 9.851562 9.492188 9.859375 10.425781 C 9.863281 11.441406 9.855469 11.121094 9.867188 11.183594 C 9.796875 11.207031 9.609375 11.25 9.109375 11.25 C 4.351562 11.25 1.25 4.957031 1.132812 3.753906 C 1.171875 3.75 1.742188 3.75 3.042969 3.75 Z M 3.042969 3.75 "/>
</g>
</svg>
